<?xml version="1.0" encoding="UTF-8" standalone="no"?>
<!-- Created with Inkscape (http://www.inkscape.org/) -->

<svg
   width="200mm"
   height="100mm"
   viewBox="0 0 200 100"
   version="1.1"
   id="svg5"
   xml:space="preserve"
   inkscape:version="1.2 (dc2aedaf03, 2022-05-15)"
   sodipodi:docname="default_logo.svg"
   inkscape:export-filename="default_logo.png"
   inkscape:export-xdpi="24.383999"
   inkscape:export-ydpi="24.383999"
   xmlns:inkscape="http://www.inkscape.org/namespaces/inkscape"
   xmlns:sodipodi="http://sodipodi.sourceforge.net/DTD/sodipodi-0.dtd"
   xmlns="http://www.w3.org/2000/svg"
   xmlns:svg="http://www.w3.org/2000/svg"><sodipodi:namedview
     id="namedview7"
     pagecolor="#ffffff"
     bordercolor="#111111"
     borderopacity="1"
     inkscape:showpageshadow="0"
     inkscape:pageopacity="0"
     inkscape:pagecheckerboard="1"
     inkscape:deskcolor="#d1d1d1"
     inkscape:document-units="mm"
     showgrid="false"
     inkscape:zoom="0.76078842"
     inkscape:cx="460.04906"
     inkscape:cy="130.12816"
     inkscape:window-width="1920"
     inkscape:window-height="1009"
     inkscape:window-x="-8"
     inkscape:window-y="1192"
     inkscape:window-maximized="1"
     inkscape:current-layer="layer1" /><defs
     id="defs2"><rect
       x="838.35437"
       y="65.06076"
       width="892.26184"
       height="256.52527"
       id="rect5358" /><rect
       x="399.65894"
       y="9.2943945"
       width="1853.3022"
       height="360.6225"
       id="rect321" /></defs><g
     inkscape:label="Warstwa 1"
     inkscape:groupmode="layer"
     id="layer1"><rect
       style="fill:#000000;fill-opacity:1;stroke-width:0.622146"
       id="rect534"
       width="210"
       height="110"
       x="-5"
       y="-5" /><g
       id="g5876"
       transform="matrix(1.2067852,0,0,1.2067852,-211.47669,10.762301)"><g
         id="g5881"
         transform="translate(0,-19.471334)"><path
           id="path5325"
           style="fill:#00b4e4;fill-opacity:1;stroke:none;stroke-width:0.995102;stroke-dasharray:none;stroke-opacity:1"
           d="m 185.55489,38.354875 c -1.12042,-1.4e-5 -2.02871,0.90828 -2.0287,2.028712 v 8.553582 c -2e-5,9.123265 7.39575,16.519188 16.51899,16.519331 9.12337,2.2e-5 16.51932,-7.395948 16.5193,-16.519331 v -5.788101 c 1e-4,-0.0027 2.1e-4,-0.0054 2.9e-4,-0.008 1e-5,-1.120432 -0.90827,-2.028725 -2.0287,-2.028711 -1.12042,-1.4e-5 -2.02873,0.908279 -2.0287,2.028711 h -3.1e-4 v 5.796189 c 0,6.882519 -5.57938,12.461902 -12.46188,12.461907 -6.8825,-5e-6 -12.46187,-5.579389 -12.46187,-12.461908 V 40.39176 c 10e-5,-0.0026 2.1e-4,-0.0054 2.9e-4,-0.008 2e-5,-1.120432 -0.90827,-2.028725 -2.02871,-2.028711 z"
           sodipodi:nodetypes="ccccccccccscccccc" /><path
           id="path6874"
           style="fill:#ff0202;fill-opacity:1;stroke:none;stroke-width:0.717163;stroke-dasharray:none;stroke-opacity:1"
           d="m 208.73981,38.960678 a 2.0286801,2.0286849 0 0 0 -2.0287,2.028414 h -3e-4 v 7.948006 c 1e-5,3.681382 -2.98434,6.665744 -6.6657,6.665721 -3.68126,-1.42e-4 -6.66543,-2.984456 -6.66541,-6.665721 v -2.753273 c 10e-6,-1.12043 -0.90827,-2.028724 -2.02871,-2.02871 -1.12042,-1.4e-5 -2.02871,0.90828 -2.0287,2.02871 v 2.753273 c -6e-5,5.922126 4.80071,10.723029 10.72282,10.723142 5.92222,5.2e-5 10.72316,-4.800898 10.72311,-10.723142 v -7.939619 -3e-4 l 3.1e-4,-0.008 a 2.0286801,2.0286849 0 0 0 -2.02872,-2.028446 z" /><path
           id="rect1819-1"
           style="fill:#ffc425;fill-opacity:1;stroke-width:0.501359"
           d="m 197.14725,42.41629 c -1.12044,-1.4e-5 -2.02872,0.908279 -2.02871,2.028711 v 4.492168 c -8e-5,2.720995 2.20565,4.92687 4.92664,4.926955 2.72111,8.2e-5 4.92703,-2.205841 4.92695,-4.926955 v -2.173672 c 1e-5,-1.12043 -0.90828,-2.028723 -2.02871,-2.02871 -1.12032,1.51e-4 -2.02843,0.908397 -2.0284,2.02871 v 2.173672 c 4e-5,0.480251 -0.38927,0.869586 -0.86953,0.869532 -0.48026,5.4e-5 -0.86959,-0.389281 -0.86953,-0.869532 v -4.492168 c 1e-5,-1.120432 -0.90828,-2.028725 -2.02871,-2.028711 z"
           sodipodi:nodetypes="cccsccccccccc" /></g></g><text
       xml:space="preserve"
       transform="scale(0.26458333)"
       id="text5356"
       style="font-style:normal;font-variant:normal;font-weight:normal;font-stretch:normal;font-size:24px;line-height:normal;font-family:sans-serif;-inkscape-font-specification:'sans-serif, Normal';font-variant-ligatures:normal;font-variant-position:normal;font-variant-caps:normal;font-variant-numeric:normal;font-variant-alternates:normal;font-variant-east-asian:normal;font-feature-settings:normal;font-variation-settings:normal;text-indent:0;text-align:start;text-decoration-line:none;text-decoration-style:solid;text-decoration-color:#000000;letter-spacing:normal;word-spacing:normal;text-transform:none;writing-mode:lr-tb;direction:ltr;text-orientation:mixed;dominant-baseline:auto;baseline-shift:baseline;white-space:pre;shape-inside:url(#rect5358);shape-padding:0;shape-margin:0;inline-size:0;display:inline;opacity:1;fill:#000000;fill-opacity:1;stroke:#000000;stroke-width:0.999999;stroke-linecap:butt;stroke-linejoin:miter;stroke-miterlimit:4;stroke-dasharray:none;stroke-dashoffset:0;stroke-opacity:1;stop-color:#000000;stop-opacity:1" /><text
       xml:space="preserve"
       style="font-style:normal;font-variant:normal;font-weight:normal;font-stretch:normal;font-size:68.0315px;line-height:0.8;font-family:sans-serif;-inkscape-font-specification:'sans-serif, Normal';font-variant-ligatures:normal;font-variant-position:normal;font-variant-caps:normal;font-variant-numeric:normal;font-variant-alternates:normal;font-variant-east-asian:normal;font-feature-settings:normal;font-variation-settings:normal;text-indent:0;text-align:start;text-decoration-line:none;text-decoration-style:solid;text-decoration-color:#000000;letter-spacing:-0.03px;word-spacing:normal;text-transform:none;writing-mode:lr-tb;direction:ltr;text-orientation:mixed;dominant-baseline:auto;baseline-shift:baseline;text-anchor:start;white-space:normal;shape-padding:0;shape-margin:0;inline-size:0;opacity:1;fill:#0054a4;fill-opacity:1;stroke:none;stroke-width:0.999999;stroke-linecap:butt;stroke-linejoin:miter;stroke-miterlimit:4;stroke-dasharray:none;stroke-dashoffset:0;stroke-opacity:1;stop-color:#000000;stop-opacity:1"
       x="1184.1058"
       y="117.10937"
       id="text5364"
       transform="matrix(0.31929525,0,0,0.31929525,-327.24502,11.70822)"><tspan
         style="font-style:normal;font-variant:normal;font-weight:bold;font-stretch:normal;font-size:68.0315px;font-family:sans-serif;-inkscape-font-specification:'sans-serif Bold';fill:#0054a4;fill-opacity:1;stroke:none"
         sodipodi:role="line"
         id="tspan6541"
         x="1184.1058"
         y="117.10937"
         dy="0">RANKING</tspan><tspan
         sodipodi:role="line"
         x="1184.1058"
         y="171.53458"
         id="tspan5416"
         style="font-style:normal;font-variant:normal;font-weight:bold;font-stretch:normal;font-size:68.0315px;font-family:sans-serif;-inkscape-font-specification:'sans-serif Bold';fill:#0054a4;fill-opacity:1;stroke:none">ŁUCZNICZY</tspan></text></g></svg>
